
<svg width="128" height="128" viewBox="0 0 128 128" fill="none" xmlns="http://www.w3.org/2000/svg">
<path d="M41.2959 103.885C40.3471 103.885 39.4388 103.752 38.571 103.486C37.7032 103.208 37.0148 102.856 36.5057 102.427L37.2867 100.675C37.7727 101.056 38.3743 101.375 39.0917 101.629C39.8091 101.884 40.5438 102.011 41.2959 102.011C41.9323 102.011 42.4472 101.941 42.8406 101.803C43.234 101.664 43.5233 101.479 43.7084 101.247C43.8935 101.004 43.9861 100.732 43.9861 100.432C43.9861 100.061 43.853 99.7662 43.5869 99.5464C43.3208 99.315 42.9737 99.1356 42.5455 99.0083C42.129 98.8695 41.6604 98.7422 41.1397 98.6265C40.6306 98.5108 40.1157 98.3777 39.595 98.2273C39.0859 98.0653 38.6173 97.8628 38.1892 97.6199C37.7727 97.3653 37.4313 97.0298 37.1652 96.6132C36.8991 96.1967 36.766 95.6644 36.766 95.0165C36.766 94.3569 36.9396 93.7553 37.2867 93.2115C37.6454 92.6561 38.1834 92.2164 38.9008 91.8924C39.6297 91.5569 40.5496 91.3891 41.6604 91.3891C42.3893 91.3891 43.1125 91.4816 43.8299 91.6668C44.5473 91.8519 45.1721 92.118 45.7043 92.4651L44.9927 94.2181C44.4489 93.8941 43.8877 93.6569 43.3092 93.5065C42.7307 93.3445 42.1753 93.2635 41.643 93.2635C41.0182 93.2635 40.5091 93.3387 40.1157 93.4891C39.7339 93.6396 39.4504 93.8363 39.2653 94.0792C39.0917 94.3222 39.0049 94.5999 39.0049 94.9123C39.0049 95.2826 39.1322 95.5834 39.3868 95.8148C39.6529 96.0347 39.9942 96.2082 40.4108 96.3355C40.8389 96.4628 41.3133 96.5901 41.834 96.7174C42.3546 96.8331 42.8695 96.9661 43.3786 97.1165C43.8993 97.267 44.3679 97.4637 44.7845 97.7066C45.2126 97.9496 45.5539 98.2794 45.8085 98.6959C46.0746 99.1125 46.2076 99.6389 46.2076 100.275C46.2076 100.923 46.0283 101.525 45.6696 102.08C45.3225 102.624 44.7845 103.064 44.0555 103.399C43.3266 103.723 42.4067 103.885 41.2959 103.885ZM50.74 103.712V93.4718H46.7134V91.5626H57.0228V93.4718H52.9963V103.712H50.74ZM56.3877 103.712L61.8548 91.5626H64.0764L69.5609 103.712H67.2005L62.497 92.7602H63.3995L58.7134 103.712H56.3877ZM58.9043 100.9L59.5118 99.1298H66.0723L66.6798 100.9H58.9043ZM71.106 103.712V91.5626H76.1045C77.1805 91.5626 78.1004 91.7362 78.8641 92.0833C79.6393 92.4304 80.2352 92.928 80.6517 93.5759C81.0683 94.2239 81.2765 94.9933 81.2765 95.8843C81.2765 96.7752 81.0683 97.5447 80.6517 98.1926C80.2352 98.829 79.6393 99.3207 78.8641 99.6679C78.1004 100.003 77.1805 100.171 76.1045 100.171H72.3556L73.3622 99.1472V103.712H71.106ZM79.055 103.712L75.983 99.3034H78.3954L81.4848 103.712H79.055ZM73.3622 99.3902L72.3556 98.3141H76.0003C76.9954 98.3141 77.7417 98.1 78.2392 97.6719C78.7483 97.2438 79.0029 96.6479 79.0029 95.8843C79.0029 95.109 78.7483 94.5131 78.2392 94.0966C77.7417 93.6801 76.9954 93.4718 76.0003 93.4718H72.3556L73.3622 92.361V99.3902ZM86.0959 103.712V93.4718H82.0693V91.5626H92.3788V93.4718H88.3522V103.712H86.0959Z" fill="url(#paint0_linear_114_163)"/>
<g filter="url(#filter0_f_114_163)">
<circle cx="64" cy="64" r="58.9153" stroke="url(#paint1_linear_114_163)" stroke-width="2.16949"/>
</g>
<circle cx="64" cy="64" r="58.9153" stroke="url(#paint2_linear_114_163)" stroke-width="2.16949"/>
<g filter="url(#filter1_f_114_163)">
<path d="M76.0772 49.2324C75.6266 49.2324 75.2608 49.5974 75.2608 50.0488V54.9473C75.2608 61.25 70.1338 66.377 63.8311 66.377C57.5284 66.377 52.4014 61.25 52.4014 54.9473V50.0488C52.4014 49.5974 52.0356 49.2324 51.585 49.2324C51.1343 49.2324 50.7686 49.5974 50.7686 50.0488V54.9473C50.7686 61.8745 56.1928 67.5436 63.0147 67.9682V72.0919H58.9326C58.482 72.0919 58.1162 72.4568 58.1162 72.9083C58.1162 73.3597 58.482 73.7247 58.9326 73.7247H68.7295C69.1802 73.7247 69.546 73.3597 69.546 72.9083C69.546 72.4568 69.1802 72.0919 68.7295 72.0919H64.6475V67.9682C71.4694 67.5436 76.8936 61.8737 76.8936 54.9473V50.0488C76.8936 49.5974 76.5279 49.2324 76.0772 49.2324Z" fill="url(#paint3_linear_114_163)"/>
<path d="M63.8311 63.9277C68.7826 63.9277 72.8116 59.8987 72.8116 54.9472V35.3534C72.8116 30.4019 68.7826 26.3729 63.8311 26.3729C58.8796 26.3729 54.8506 30.4019 54.8506 35.3534V54.9472C54.8506 59.8987 58.8796 63.9277 63.8311 63.9277Z" fill="url(#paint4_linear_114_163)"/>
</g>
<path d="M76.0772 49.2324C75.6266 49.2324 75.2608 49.5974 75.2608 50.0488V54.9473C75.2608 61.25 70.1338 66.377 63.8311 66.377C57.5284 66.377 52.4014 61.25 52.4014 54.9473V50.0488C52.4014 49.5974 52.0356 49.2324 51.585 49.2324C51.1343 49.2324 50.7686 49.5974 50.7686 50.0488V54.9473C50.7686 61.8745 56.1928 67.5436 63.0147 67.9682V72.0919H58.9326C58.482 72.0919 58.1162 72.4568 58.1162 72.9083C58.1162 73.3597 58.482 73.7247 58.9326 73.7247H68.7295C69.1802 73.7247 69.546 73.3597 69.546 72.9083C69.546 72.4568 69.1802 72.0919 68.7295 72.0919H64.6475V67.9682C71.4694 67.5436 76.8936 61.8737 76.8936 54.9473V50.0488C76.8936 49.5974 76.5279 49.2324 76.0772 49.2324Z" fill="url(#paint5_linear_114_163)"/>
<path d="M63.8311 63.9277C68.7826 63.9277 72.8116 59.8987 72.8116 54.9472V35.3534C72.8116 30.4019 68.7826 26.3729 63.8311 26.3729C58.8796 26.3729 54.8506 30.4019 54.8506 35.3534V54.9472C54.8506 59.8987 58.8796 63.9277 63.8311 63.9277Z" fill="url(#paint6_linear_114_163)"/>
<defs>
<filter id="filter0_f_114_163" x="0.384181" y="0.384181" width="127.232" height="127.232" filterUnits="userSpaceOnUse" color-interpolation-filters="sRGB">
<feFlood flood-opacity="0" result="BackgroundImageFix"/>
<feBlend mode="normal" in="SourceGraphic" in2="BackgroundImageFix" result="shape"/>
<feGaussianBlur stdDeviation="1.80791" result="effect1_foregroundBlur_114_163"/>
</filter>
<filter id="filter1_f_114_163" x="46.7912" y="22.3955" width="34.0798" height="55.3066" filterUnits="userSpaceOnUse" color-interpolation-filters="sRGB">
<feFlood flood-opacity="0" result="BackgroundImageFix"/>
<feBlend mode="normal" in="SourceGraphic" in2="BackgroundImageFix" result="shape"/>
<feGaussianBlur stdDeviation="1.9887" result="effect1_foregroundBlur_114_163"/>
</filter>
<linearGradient id="paint0_linear_114_163" x1="58.6617" y1="86.3318" x2="58.6617" y2="106.399" gradientUnits="userSpaceOnUse">
<stop stop-color="#00FFA3" stop-opacity="0.8"/>
<stop offset="1" stop-color="#00FFF0" stop-opacity="0.6"/>
</linearGradient>
<linearGradient id="paint1_linear_114_163" x1="53.4609" y1="1.68401" x2="53.4609" y2="124" gradientUnits="userSpaceOnUse">
<stop stop-color="#00FFA3" stop-opacity="0.8"/>
<stop offset="1" stop-color="#00FFF0" stop-opacity="0.6"/>
</linearGradient>
<linearGradient id="paint2_linear_114_163" x1="53.4609" y1="1.68401" x2="53.4609" y2="124" gradientUnits="userSpaceOnUse">
<stop stop-color="#00FFA3" stop-opacity="0.8"/>
<stop offset="1" stop-color="#00FFF0" stop-opacity="0.6"/>
</linearGradient>
<linearGradient id="paint3_linear_114_163" x1="61.5366" y1="48.7597" x2="61.5366" y2="73.7247" gradientUnits="userSpaceOnUse">
<stop stop-color="#00FFA3" stop-opacity="0.8"/>
<stop offset="1" stop-color="#00FFF0" stop-opacity="0.6"/>
</linearGradient>
<linearGradient id="paint4_linear_114_163" x1="62.2536" y1="25.6481" x2="62.2536" y2="63.9277" gradientUnits="userSpaceOnUse">
<stop stop-color="#00FFA3" stop-opacity="0.8"/>
<stop offset="1" stop-color="#00FFF0" stop-opacity="0.6"/>
</linearGradient>
<linearGradient id="paint5_linear_114_163" x1="61.5366" y1="48.7597" x2="61.5366" y2="73.7247" gradientUnits="userSpaceOnUse">
<stop stop-color="#00FFA3" stop-opacity="0.8"/>
<stop offset="1" stop-color="#00FFF0" stop-opacity="0.6"/>
</linearGradient>
<linearGradient id="paint6_linear_114_163" x1="62.2536" y1="25.6481" x2="62.2536" y2="63.9277" gradientUnits="userSpaceOnUse">
<stop stop-color="#00FFA3" stop-opacity="0.8"/>
<stop offset="1" stop-color="#00FFF0" stop-opacity="0.6"/>
</linearGradient>
</defs>
</svg>
