<svg width="140" height="140" viewBox="0 0 140 140" fill="none" xmlns="http://www.w3.org/2000/svg">
<path d="M50.5933 105.527C49.6093 105.527 48.6673 105.389 47.7673 105.113C46.8673 104.825 46.1533 104.459 45.6253 104.015L46.4353 102.197C46.9393 102.593 47.5633 102.923 48.3073 103.187C49.0513 103.451 49.8133 103.583 50.5933 103.583C51.2533 103.583 51.7873 103.511 52.1953 103.367C52.6033 103.223 52.9033 103.031 53.0953 102.791C53.2873 102.539 53.3833 102.257 53.3833 101.945C53.3833 101.561 53.2453 101.255 52.9693 101.027C52.6933 100.787 52.3333 100.601 51.8893 100.469C51.4573 100.325 50.9713 100.193 50.4313 100.073C49.9033 99.9532 49.3693 99.8152 48.8293 99.6592C48.3013 99.4912 47.8153 99.2812 47.3713 99.0292C46.9393 98.7652 46.5853 98.4172 46.3093 97.9852C46.0333 97.5532 45.8953 97.0012 45.8953 96.3292C45.8953 95.6452 46.0753 95.0212 46.4353 94.4572C46.8073 93.8812 47.3653 93.4252 48.1093 93.0892C48.8653 92.7412 49.8193 92.5672 50.9713 92.5672C51.7273 92.5672 52.4773 92.6632 53.2213 92.8552C53.9653 93.0472 54.6133 93.3232 55.1653 93.6832L54.4273 95.5012C53.8633 95.1652 53.2813 94.9192 52.6813 94.7632C52.0813 94.5952 51.5053 94.5112 50.9533 94.5112C50.3053 94.5112 49.7773 94.5892 49.3693 94.7452C48.9733 94.9012 48.6793 95.1052 48.4873 95.3572C48.3073 95.6092 48.2173 95.8972 48.2173 96.2212C48.2173 96.6052 48.3493 96.9172 48.6133 97.1572C48.8893 97.3852 49.2433 97.5652 49.6753 97.6972C50.1193 97.8292 50.6113 97.9612 51.1513 98.0932C51.6913 98.2132 52.2253 98.3512 52.7533 98.5072C53.2933 98.6632 53.7793 98.8672 54.2113 99.1192C54.6553 99.3712 55.0093 99.7132 55.2733 100.145C55.5493 100.577 55.6873 101.123 55.6873 101.783C55.6873 102.455 55.5013 103.079 55.1293 103.655C54.7693 104.219 54.2113 104.675 53.4553 105.023C52.6993 105.359 51.7453 105.527 50.5933 105.527ZM60.3878 105.347V94.7272H56.2118V92.7472H66.9038V94.7272H62.7278V105.347H60.3878ZM74.3882 105.527C73.4042 105.527 72.4982 105.365 71.6702 105.041C70.8422 104.717 70.1222 104.267 69.5102 103.691C68.8982 103.103 68.4242 102.419 68.0882 101.639C67.7522 100.847 67.5842 99.9832 67.5842 99.0472C67.5842 98.1112 67.7522 97.2532 68.0882 96.4732C68.4242 95.6812 68.8982 94.9972 69.5102 94.4212C70.1222 93.8332 70.8422 93.3772 71.6702 93.0532C72.4982 92.7292 73.3982 92.5672 74.3702 92.5672C75.3542 92.5672 76.2542 92.7292 77.0702 93.0532C77.8982 93.3772 78.6182 93.8332 79.2302 94.4212C79.8422 94.9972 80.3162 95.6812 80.6522 96.4732C80.9882 97.2532 81.1562 98.1112 81.1562 99.0472C81.1562 99.9832 80.9882 100.847 80.6522 101.639C80.3162 102.431 79.8422 103.115 79.2302 103.691C78.6182 104.267 77.8982 104.717 77.0702 105.041C76.2542 105.365 75.3602 105.527 74.3882 105.527ZM74.3702 103.475C75.0062 103.475 75.5942 103.367 76.1342 103.151C76.6742 102.935 77.1422 102.629 77.5382 102.233C77.9342 101.825 78.2402 101.357 78.4562 100.829C78.6842 100.289 78.7982 99.6952 78.7982 99.0472C78.7982 98.3992 78.6842 97.8112 78.4562 97.2832C78.2402 96.7432 77.9342 96.2752 77.5382 95.8792C77.1422 95.4712 76.6742 95.1592 76.1342 94.9432C75.5942 94.7272 75.0062 94.6192 74.3702 94.6192C73.7342 94.6192 73.1462 94.7272 72.6062 94.9432C72.0782 95.1592 71.6102 95.4712 71.2022 95.8792C70.8062 96.2752 70.4942 96.7432 70.2662 97.2832C70.0502 97.8112 69.9422 98.3992 69.9422 99.0472C69.9422 99.6832 70.0502 100.271 70.2662 100.811C70.4942 101.351 70.8062 101.825 71.2022 102.233C71.5982 102.629 72.0662 102.935 72.6062 103.151C73.1462 103.367 73.7342 103.475 74.3702 103.475ZM83.6365 105.347V92.7472H88.8205C89.9365 92.7472 90.8905 92.9272 91.6825 93.2872C92.4865 93.6472 93.1045 94.1632 93.5365 94.8352C93.9685 95.5072 94.1845 96.3052 94.1845 97.2292C94.1845 98.1532 93.9685 98.9512 93.5365 99.6232C93.1045 100.295 92.4865 100.811 91.6825 101.171C90.8905 101.531 89.9365 101.711 88.8205 101.711H84.9325L85.9765 100.613V105.347H83.6365ZM85.9765 100.865L84.9325 99.7312H88.7125C89.7445 99.7312 90.5185 99.5152 91.0345 99.0832C91.5625 98.6392 91.8265 98.0212 91.8265 97.2292C91.8265 96.4252 91.5625 95.8072 91.0345 95.3752C90.5185 94.9432 89.7445 94.7272 88.7125 94.7272H84.9325L85.9765 93.5752V100.865Z" fill="url(#paint0_linear_129_46)"/>
<g filter="url(#filter0_f_129_46)">
<circle cx="70" cy="70" r="57" stroke="url(#paint1_linear_129_46)" stroke-width="6"/>
<circle cx="70" cy="70" r="57" stroke="url(#paint2_linear_129_46)" stroke-width="6"/>
</g>
<circle cx="70" cy="70" r="59" stroke="url(#paint3_linear_129_46)" stroke-width="2"/>
<circle cx="70" cy="70" r="59" stroke="url(#paint4_linear_129_46)" stroke-width="2"/>
<g filter="url(#filter1_f_129_46)">
<path d="M79.6813 58.1614C79.3201 58.1614 79.0269 58.4539 79.0269 58.8159V62.7427C79.0269 67.7953 74.9168 71.9054 69.8642 71.9054C64.8116 71.9054 60.7015 67.7953 60.7015 62.7427V58.8159C60.7015 58.4539 60.4083 58.1614 60.0471 58.1614C59.6858 58.1614 59.3926 58.4539 59.3926 58.8159V62.7427C59.3926 68.2959 63.7409 72.8406 69.2097 73.181V76.4867H65.9373C65.5761 76.4867 65.2829 76.7793 65.2829 77.1412C65.2829 77.5031 65.5761 77.7957 65.9373 77.7957H73.7911C74.1523 77.7957 74.4455 77.5031 74.4455 77.1412C74.4455 76.7793 74.1523 76.4867 73.7911 76.4867H70.5187V73.181C75.9875 72.8406 80.3358 68.2953 80.3358 62.7427V58.8159C80.3358 58.4539 80.0426 58.1614 79.6813 58.1614Z" fill="url(#paint5_linear_129_46)"/>
<path d="M69.8643 69.942C73.8337 69.942 77.0635 66.7121 77.0635 62.7427V47.0353C77.0635 43.0659 73.8337 39.8361 69.8643 39.8361C65.8949 39.8361 62.665 43.0659 62.665 47.0353V62.7427C62.665 66.7121 65.8949 69.942 69.8643 69.942Z" fill="url(#paint6_linear_129_46)"/>
</g>
<path d="M79.6813 58.1614C79.3201 58.1614 79.0269 58.4539 79.0269 58.8159V62.7427C79.0269 67.7953 74.9168 71.9054 69.8642 71.9054C64.8116 71.9054 60.7015 67.7953 60.7015 62.7427V58.8159C60.7015 58.4539 60.4083 58.1614 60.0471 58.1614C59.6858 58.1614 59.3926 58.4539 59.3926 58.8159V62.7427C59.3926 68.2959 63.7409 72.8406 69.2097 73.181V76.4867H65.9373C65.5761 76.4867 65.2829 76.7793 65.2829 77.1412C65.2829 77.5031 65.5761 77.7957 65.9373 77.7957H73.7911C74.1523 77.7957 74.4455 77.5031 74.4455 77.1412C74.4455 76.7793 74.1523 76.4867 73.7911 76.4867H70.5187V73.181C75.9875 72.8406 80.3358 68.2953 80.3358 62.7427V58.8159C80.3358 58.4539 80.0426 58.1614 79.6813 58.1614Z" fill="url(#paint7_linear_129_46)"/>
<path d="M69.8643 69.942C73.8337 69.942 77.0635 66.7121 77.0635 62.7427V47.0353C77.0635 43.0659 73.8337 39.8361 69.8643 39.8361C65.8949 39.8361 62.665 43.0659 62.665 47.0353V62.7427C62.665 66.7121 65.8949 69.942 69.8643 69.942Z" fill="url(#paint8_linear_129_46)"/>
<defs>
<filter id="filter0_f_129_46" x="0" y="0" width="140" height="140" filterUnits="userSpaceOnUse" color-interpolation-filters="sRGB">
<feFlood flood-opacity="0" result="BackgroundImageFix"/>
<feBlend mode="normal" in="SourceGraphic" in2="BackgroundImageFix" result="shape"/>
<feGaussianBlur stdDeviation="5" result="effect1_foregroundBlur_129_46"/>
</filter>
<filter id="filter1_f_129_46" x="48.3926" y="28.8361" width="42.9434" height="59.9596" filterUnits="userSpaceOnUse" color-interpolation-filters="sRGB">
<feFlood flood-opacity="0" result="BackgroundImageFix"/>
<feBlend mode="normal" in="SourceGraphic" in2="BackgroundImageFix" result="shape"/>
<feGaussianBlur stdDeviation="5.5" result="effect1_foregroundBlur_129_46"/>
</filter>
<linearGradient id="paint0_linear_129_46" x1="65.5581" y1="88.0409" x2="65.5581" y2="104.215" gradientUnits="userSpaceOnUse">
<stop stop-color="#FF0F00" stop-opacity="0.8"/>
<stop offset="1" stop-color="#FF5C00" stop-opacity="0.6"/>
</linearGradient>
<linearGradient id="paint1_linear_129_46" x1="59.4609" y1="7.68401" x2="59.4609" y2="130" gradientUnits="userSpaceOnUse">
<stop stop-color="#00FFA3" stop-opacity="0.8"/>
<stop offset="1" stop-color="#00FFF0" stop-opacity="0.6"/>
</linearGradient>
<linearGradient id="paint2_linear_129_46" x1="59.4609" y1="7.68401" x2="59.4609" y2="130" gradientUnits="userSpaceOnUse">
<stop stop-color="#FF0F00" stop-opacity="0.8"/>
<stop offset="1" stop-color="#FF5C00" stop-opacity="0.6"/>
</linearGradient>
<linearGradient id="paint3_linear_129_46" x1="59.4609" y1="7.68401" x2="59.4609" y2="130" gradientUnits="userSpaceOnUse">
<stop stop-color="#00FFA3" stop-opacity="0.8"/>
<stop offset="1" stop-color="#00FFF0" stop-opacity="0.6"/>
</linearGradient>
<linearGradient id="paint4_linear_129_46" x1="59.4609" y1="7.68401" x2="59.4609" y2="130" gradientUnits="userSpaceOnUse">
<stop stop-color="#FF0F00" stop-opacity="0.8"/>
<stop offset="1" stop-color="#FF5C00" stop-opacity="0.6"/>
</linearGradient>
<linearGradient id="paint5_linear_129_46" x1="68.0248" y1="57.7824" x2="68.0248" y2="77.7957" gradientUnits="userSpaceOnUse">
<stop stop-color="#FF0F00" stop-opacity="0.8"/>
<stop offset="1" stop-color="#FF5C00" stop-opacity="0.6"/>
</linearGradient>
<linearGradient id="paint6_linear_129_46" x1="68.5997" y1="39.255" x2="68.5997" y2="69.942" gradientUnits="userSpaceOnUse">
<stop stop-color="#FF0F00" stop-opacity="0.8"/>
<stop offset="1" stop-color="#FF5C00" stop-opacity="0.6"/>
</linearGradient>
<linearGradient id="paint7_linear_129_46" x1="68.0248" y1="57.7824" x2="68.0248" y2="77.7957" gradientUnits="userSpaceOnUse">
<stop stop-color="#FF0F00" stop-opacity="0.8"/>
<stop offset="1" stop-color="#FF5C00" stop-opacity="0.6"/>
</linearGradient>
<linearGradient id="paint8_linear_129_46" x1="68.5997" y1="39.255" x2="68.5997" y2="69.942" gradientUnits="userSpaceOnUse">
<stop stop-color="#FF0F00" stop-opacity="0.8"/>
<stop offset="1" stop-color="#FF5C00" stop-opacity="0.6"/>
</linearGradient>
</defs>
</svg>