<svg width="374" height="374" viewBox="0 0 374 374" fill="none" xmlns="http://www.w3.org/2000/svg">
<path d="M135.748 301.48C133.124 301.48 130.612 301.112 128.212 300.376C125.812 299.608 123.908 298.632 122.5 297.448L124.66 292.6C126.004 293.656 127.668 294.536 129.652 295.24C131.636 295.944 133.668 296.296 135.748 296.296C137.508 296.296 138.932 296.104 140.02 295.72C141.108 295.336 141.908 294.824 142.42 294.184C142.932 293.512 143.188 292.76 143.188 291.928C143.188 290.904 142.82 290.088 142.084 289.48C141.348 288.84 140.388 288.344 139.204 287.992C138.052 287.608 136.756 287.256 135.316 286.936C133.908 286.616 132.484 286.248 131.044 285.832C129.636 285.384 128.34 284.824 127.156 284.152C126.004 283.448 125.06 282.52 124.324 281.368C123.588 280.216 123.22 278.744 123.22 276.952C123.22 275.128 123.7 273.464 124.66 271.96C125.652 270.424 127.14 269.208 129.124 268.312C131.14 267.384 133.684 266.92 136.756 266.92C138.772 266.92 140.772 267.176 142.756 267.688C144.74 268.2 146.468 268.936 147.94 269.896L145.972 274.744C144.468 273.848 142.916 273.192 141.316 272.776C139.716 272.328 138.18 272.104 136.708 272.104C134.98 272.104 133.572 272.312 132.484 272.728C131.428 273.144 130.644 273.688 130.132 274.36C129.652 275.032 129.412 275.8 129.412 276.664C129.412 277.688 129.764 278.52 130.468 279.16C131.204 279.768 132.148 280.248 133.3 280.6C134.484 280.952 135.796 281.304 137.236 281.656C138.676 281.976 140.1 282.344 141.508 282.76C142.948 283.176 144.244 283.72 145.396 284.392C146.58 285.064 147.524 285.976 148.228 287.128C148.964 288.28 149.332 289.736 149.332 291.496C149.332 293.288 148.836 294.952 147.844 296.488C146.884 297.992 145.396 299.208 143.38 300.136C141.364 301.032 138.82 301.48 135.748 301.48ZM161.867 301V272.68H150.731V267.4H179.243V272.68H168.107V301H161.867ZM199.201 301.48C196.577 301.48 194.161 301.048 191.953 300.184C189.745 299.32 187.825 298.12 186.193 296.584C184.561 295.016 183.297 293.192 182.401 291.112C181.505 289 181.057 286.696 181.057 284.2C181.057 281.704 181.505 279.416 182.401 277.336C183.297 275.224 184.561 273.4 186.193 271.864C187.825 270.296 189.745 269.08 191.953 268.216C194.161 267.352 196.561 266.92 199.153 266.92C201.777 266.92 204.177 267.352 206.353 268.216C208.561 269.08 210.481 270.296 212.113 271.864C213.745 273.4 215.009 275.224 215.905 277.336C216.801 279.416 217.249 281.704 217.249 284.2C217.249 286.696 216.801 289 215.905 291.112C215.009 293.224 213.745 295.048 212.113 296.584C210.481 298.12 208.561 299.32 206.353 300.184C204.177 301.048 201.793 301.48 199.201 301.48ZM199.153 296.008C200.849 296.008 202.417 295.72 203.857 295.144C205.297 294.568 206.545 293.752 207.601 292.696C208.657 291.608 209.473 290.36 210.049 288.952C210.657 287.512 210.961 285.928 210.961 284.2C210.961 282.472 210.657 280.904 210.049 279.496C209.473 278.056 208.657 276.808 207.601 275.752C206.545 274.664 205.297 273.832 203.857 273.256C202.417 272.68 200.849 272.392 199.153 272.392C197.457 272.392 195.889 272.68 194.449 273.256C193.041 273.832 191.793 274.664 190.705 275.752C189.649 276.808 188.817 278.056 188.209 279.496C187.633 280.904 187.345 282.472 187.345 284.2C187.345 285.896 187.633 287.464 188.209 288.904C188.817 290.344 189.649 291.608 190.705 292.696C191.761 293.752 193.009 294.568 194.449 295.144C195.889 295.72 197.457 296.008 199.153 296.008ZM223.864 301V267.4H237.688C240.664 267.4 243.208 267.88 245.32 268.84C247.464 269.8 249.112 271.176 250.264 272.968C251.416 274.76 251.992 276.888 251.992 279.352C251.992 281.816 251.416 283.944 250.264 285.736C249.112 287.528 247.464 288.904 245.32 289.864C243.208 290.824 240.664 291.304 237.688 291.304H227.32L230.104 288.376V301H223.864ZM230.104 289.048L227.32 286.024H237.4C240.152 286.024 242.216 285.448 243.592 284.296C245 283.112 245.704 281.464 245.704 279.352C245.704 277.208 245 275.56 243.592 274.408C242.216 273.256 240.152 272.68 237.4 272.68H227.32L230.104 269.608V289.048Z" fill="url(#paint0_linear_109_2)"/>
<g filter="url(#filter0_f_109_2)">
<circle cx="187" cy="187" r="174" stroke="url(#paint1_linear_109_2)" stroke-width="6"/>
</g>
<circle cx="187" cy="187" r="174" stroke="url(#paint2_linear_109_2)" stroke-width="6"/>
<g filter="url(#filter1_f_109_2)">
<path d="M222.626 143.435C221.297 143.435 220.218 144.512 220.218 145.844V160.294C220.218 178.887 205.093 194.012 186.5 194.012C167.907 194.012 152.782 178.887 152.782 160.294V145.844C152.782 144.512 151.703 143.435 150.374 143.435C149.045 143.435 147.966 144.512 147.966 145.844V160.294C147.966 180.73 163.967 197.453 184.092 198.706V210.871H172.05C170.72 210.871 169.641 211.947 169.641 213.279C169.641 214.611 170.72 215.688 172.05 215.688H200.95C202.28 215.688 203.359 214.611 203.359 213.279C203.359 211.947 202.28 210.871 200.95 210.871H188.908V198.706C209.033 197.453 225.035 180.727 225.035 160.294V145.844C225.035 144.512 223.956 143.435 222.626 143.435Z" fill="url(#paint3_linear_109_2)"/>
<path d="M186.5 186.787C201.107 186.787 212.992 174.901 212.992 160.294V102.492C212.992 87.8855 201.107 76 186.5 76C171.893 76 160.008 87.8855 160.008 102.492V160.294C160.008 174.901 171.893 186.787 186.5 186.787Z" fill="url(#paint4_linear_109_2)"/>
</g>
<path d="M222.626 143.435C221.297 143.435 220.218 144.512 220.218 145.844V160.294C220.218 178.887 205.093 194.012 186.5 194.012C167.907 194.012 152.782 178.887 152.782 160.294V145.844C152.782 144.512 151.703 143.435 150.374 143.435C149.045 143.435 147.966 144.512 147.966 145.844V160.294C147.966 180.73 163.967 197.453 184.092 198.706V210.871H172.05C170.72 210.871 169.641 211.947 169.641 213.279C169.641 214.611 170.72 215.688 172.05 215.688H200.95C202.28 215.688 203.359 214.611 203.359 213.279C203.359 211.947 202.28 210.871 200.95 210.871H188.908V198.706C209.033 197.453 225.035 180.727 225.035 160.294V145.844C225.035 144.512 223.956 143.435 222.626 143.435Z" fill="url(#paint5_linear_109_2)"/>
<path d="M186.5 186.787C201.107 186.787 212.992 174.901 212.992 160.294V102.492C212.992 87.8855 201.107 76 186.5 76C171.893 76 160.008 87.8855 160.008 102.492V160.294C160.008 174.901 171.893 186.787 186.5 186.787Z" fill="url(#paint6_linear_109_2)"/>
<defs>
<filter id="filter0_f_109_2" x="0" y="0" width="374" height="374" filterUnits="userSpaceOnUse" color-interpolation-filters="sRGB">
<feFlood flood-opacity="0" result="BackgroundImageFix"/>
<feBlend mode="normal" in="SourceGraphic" in2="BackgroundImageFix" result="shape"/>
<feGaussianBlur stdDeviation="5" result="effect1_foregroundBlur_109_2"/>
</filter>
<filter id="filter1_f_109_2" x="136.966" y="65" width="99.0688" height="161.688" filterUnits="userSpaceOnUse" color-interpolation-filters="sRGB">
<feFlood flood-opacity="0" result="BackgroundImageFix"/>
<feBlend mode="normal" in="SourceGraphic" in2="BackgroundImageFix" result="shape"/>
<feGaussianBlur stdDeviation="5.5" result="effect1_foregroundBlur_109_2"/>
</filter>
<linearGradient id="paint0_linear_109_2" x1="171.252" y1="252.861" x2="171.252" y2="313" gradientUnits="userSpaceOnUse">
<stop stop-color="#00FFA3" stop-opacity="0.8"/>
<stop offset="1" stop-color="#00FFF0" stop-opacity="0.6"/>
</linearGradient>
<linearGradient id="paint1_linear_109_2" x1="155.91" y1="3.16783" x2="155.91" y2="364" gradientUnits="userSpaceOnUse">
<stop stop-color="#00FFA3" stop-opacity="0.8"/>
<stop offset="1" stop-color="#00FFF0" stop-opacity="0.6"/>
</linearGradient>
<linearGradient id="paint2_linear_109_2" x1="155.91" y1="3.16783" x2="155.91" y2="364" gradientUnits="userSpaceOnUse">
<stop stop-color="#00FFA3" stop-opacity="0.8"/>
<stop offset="1" stop-color="#00FFF0" stop-opacity="0.6"/>
</linearGradient>
<linearGradient id="paint3_linear_109_2" x1="179.731" y1="142.041" x2="179.731" y2="215.688" gradientUnits="userSpaceOnUse">
<stop stop-color="#00FFA3" stop-opacity="0.8"/>
<stop offset="1" stop-color="#00FFF0" stop-opacity="0.6"/>
</linearGradient>
<linearGradient id="paint4_linear_109_2" x1="181.847" y1="73.8618" x2="181.847" y2="186.787" gradientUnits="userSpaceOnUse">
<stop stop-color="#00FFA3" stop-opacity="0.8"/>
<stop offset="1" stop-color="#00FFF0" stop-opacity="0.6"/>
</linearGradient>
<linearGradient id="paint5_linear_109_2" x1="179.731" y1="142.041" x2="179.731" y2="215.688" gradientUnits="userSpaceOnUse">
<stop stop-color="#00FFA3" stop-opacity="0.8"/>
<stop offset="1" stop-color="#00FFF0" stop-opacity="0.6"/>
</linearGradient>
<linearGradient id="paint6_linear_109_2" x1="181.847" y1="73.8618" x2="181.847" y2="186.787" gradientUnits="userSpaceOnUse">
<stop stop-color="#00FFA3" stop-opacity="0.8"/>
<stop offset="1" stop-color="#00FFF0" stop-opacity="0.6"/>
</linearGradient>
</defs>
</svg>
