<svg width="374" height="374" viewBox="0 0 374 374" fill="none" xmlns="http://www.w3.org/2000/svg">
<path d="M124.241 301.48C121.617 301.48 119.105 301.112 116.705 300.376C114.305 299.608 112.401 298.632 110.993 297.448L113.153 292.6C114.497 293.656 116.161 294.536 118.145 295.24C120.129 295.944 122.161 296.296 124.241 296.296C126.001 296.296 127.425 296.104 128.513 295.72C129.601 295.336 130.401 294.824 130.913 294.184C131.425 293.512 131.681 292.76 131.681 291.928C131.681 290.904 131.313 290.088 130.577 289.48C129.841 288.84 128.881 288.344 127.697 287.992C126.545 287.608 125.249 287.256 123.809 286.936C122.401 286.616 120.977 286.248 119.537 285.832C118.129 285.384 116.833 284.824 115.648 284.152C114.497 283.448 113.553 282.52 112.817 281.368C112.081 280.216 111.713 278.744 111.713 276.952C111.713 275.128 112.193 273.464 113.153 271.96C114.145 270.424 115.633 269.208 117.617 268.312C119.633 267.384 122.177 266.92 125.249 266.92C127.265 266.92 129.265 267.176 131.249 267.688C133.233 268.2 134.961 268.936 136.432 269.896L134.465 274.744C132.961 273.848 131.409 273.192 129.809 272.776C128.209 272.328 126.673 272.104 125.201 272.104C123.473 272.104 122.065 272.312 120.977 272.728C119.921 273.144 119.137 273.688 118.625 274.36C118.145 275.032 117.905 275.8 117.905 276.664C117.905 277.688 118.257 278.52 118.961 279.16C119.697 279.768 120.641 280.248 121.793 280.6C122.977 280.952 124.289 281.304 125.729 281.656C127.169 281.976 128.593 282.344 130.001 282.76C131.441 283.176 132.737 283.72 133.889 284.392C135.073 285.064 136.017 285.976 136.721 287.128C137.457 288.28 137.825 289.736 137.825 291.496C137.825 293.288 137.329 294.952 136.337 296.488C135.377 297.992 133.889 299.208 131.873 300.136C129.857 301.032 127.313 301.48 124.241 301.48ZM150.359 301V272.68H139.223V267.4H167.735V272.68H156.599V301H150.359ZM165.979 301L181.099 267.4H187.243L202.411 301H195.883L182.875 270.712H185.371L172.411 301H165.979ZM172.939 293.224L174.619 288.328H192.763L194.443 293.224H172.939ZM206.684 301V267.4H220.508C223.484 267.4 226.028 267.88 228.14 268.84C230.284 269.8 231.932 271.176 233.084 272.968C234.236 274.76 234.812 276.888 234.812 279.352C234.812 281.816 234.236 283.944 233.084 285.736C231.932 287.496 230.284 288.856 228.14 289.816C226.028 290.744 223.484 291.208 220.508 291.208H210.14L212.924 288.376V301H206.684ZM228.668 301L220.172 288.808H226.844L235.388 301H228.668ZM212.924 289.048L210.14 286.072H220.22C222.972 286.072 225.036 285.48 226.412 284.296C227.82 283.112 228.524 281.464 228.524 279.352C228.524 277.208 227.82 275.56 226.412 274.408C225.036 273.256 222.972 272.68 220.22 272.68H210.14L212.924 269.608V289.048ZM248.141 301V272.68H237.005V267.4H265.517V272.68H254.381V301H248.141Z" fill="url(#paint0_linear_109_2)"/>
<g filter="url(#filter0_f_109_2)">
<circle cx="187" cy="187" r="174" stroke="url(#paint1_linear_109_2)" stroke-width="6"/>
</g>
<circle cx="187" cy="187" r="174" stroke="url(#paint2_linear_109_2)" stroke-width="6"/>
<g filter="url(#filter1_f_109_2)">
<path d="M222.626 143.435C221.297 143.435 220.218 144.512 220.218 145.844V160.294C220.218 178.887 205.093 194.012 186.5 194.012C167.907 194.012 152.782 178.887 152.782 160.294V145.844C152.782 144.512 151.703 143.435 150.374 143.435C149.045 143.435 147.966 144.512 147.966 145.844V160.294C147.966 180.73 163.967 197.453 184.092 198.706V210.871H172.05C170.72 210.871 169.641 211.947 169.641 213.279C169.641 214.611 170.72 215.688 172.05 215.688H200.95C202.28 215.688 203.359 214.611 203.359 213.279C203.359 211.947 202.28 210.871 200.95 210.871H188.908V198.706C209.033 197.453 225.035 180.727 225.035 160.294V145.844C225.035 144.512 223.956 143.435 222.626 143.435Z" fill="url(#paint3_linear_109_2)"/>
<path d="M186.5 186.787C201.107 186.787 212.992 174.901 212.992 160.294V102.492C212.992 87.8855 201.107 76 186.5 76C171.893 76 160.008 87.8855 160.008 102.492V160.294C160.008 174.901 171.893 186.787 186.5 186.787Z" fill="url(#paint4_linear_109_2)"/>
</g>
<path d="M222.626 143.435C221.297 143.435 220.218 144.512 220.218 145.844V160.294C220.218 178.887 205.093 194.012 186.5 194.012C167.907 194.012 152.782 178.887 152.782 160.294V145.844C152.782 144.512 151.703 143.435 150.374 143.435C149.045 143.435 147.966 144.512 147.966 145.844V160.294C147.966 180.73 163.967 197.453 184.092 198.706V210.871H172.05C170.72 210.871 169.641 211.947 169.641 213.279C169.641 214.611 170.72 215.688 172.05 215.688H200.95C202.28 215.688 203.359 214.611 203.359 213.279C203.359 211.947 202.28 210.871 200.95 210.871H188.908V198.706C209.033 197.453 225.035 180.727 225.035 160.294V145.844C225.035 144.512 223.956 143.435 222.626 143.435Z" fill="url(#paint5_linear_109_2)"/>
<path d="M186.5 186.787C201.107 186.787 212.992 174.901 212.992 160.294V102.492C212.992 87.8855 201.107 76 186.5 76C171.893 76 160.008 87.8855 160.008 102.492V160.294C160.008 174.901 171.893 186.787 186.5 186.787Z" fill="url(#paint6_linear_109_2)"/>
<defs>
<filter id="filter0_f_109_2" x="0" y="0" width="374" height="374" filterUnits="userSpaceOnUse" color-interpolation-filters="sRGB">
<feFlood flood-opacity="0" result="BackgroundImageFix"/>
<feBlend mode="normal" in="SourceGraphic" in2="BackgroundImageFix" result="shape"/>
<feGaussianBlur stdDeviation="5" result="effect1_foregroundBlur_109_2"/>
</filter>
<filter id="filter1_f_109_2" x="136.966" y="65" width="99.0688" height="161.688" filterUnits="userSpaceOnUse" color-interpolation-filters="sRGB">
<feFlood flood-opacity="0" result="BackgroundImageFix"/>
<feBlend mode="normal" in="SourceGraphic" in2="BackgroundImageFix" result="shape"/>
<feGaussianBlur stdDeviation="5.5" result="effect1_foregroundBlur_109_2"/>
</filter>
<linearGradient id="paint0_linear_109_2" x1="171.252" y1="252.861" x2="171.252" y2="313" gradientUnits="userSpaceOnUse">
<stop stop-color="#00FFA3" stop-opacity="0.8"/>
<stop offset="1" stop-color="#00FFF0" stop-opacity="0.6"/>
</linearGradient>
<linearGradient id="paint1_linear_109_2" x1="155.91" y1="3.16783" x2="155.91" y2="364" gradientUnits="userSpaceOnUse">
<stop stop-color="#00FFA3" stop-opacity="0.8"/>
<stop offset="1" stop-color="#00FFF0" stop-opacity="0.6"/>
</linearGradient>
<linearGradient id="paint2_linear_109_2" x1="155.91" y1="3.16783" x2="155.91" y2="364" gradientUnits="userSpaceOnUse">
<stop stop-color="#00FFA3" stop-opacity="0.8"/>
<stop offset="1" stop-color="#00FFF0" stop-opacity="0.6"/>
</linearGradient>
<linearGradient id="paint3_linear_109_2" x1="179.731" y1="142.041" x2="179.731" y2="215.688" gradientUnits="userSpaceOnUse">
<stop stop-color="#00FFA3" stop-opacity="0.8"/>
<stop offset="1" stop-color="#00FFF0" stop-opacity="0.6"/>
</linearGradient>
<linearGradient id="paint4_linear_109_2" x1="181.847" y1="73.8618" x2="181.847" y2="186.787" gradientUnits="userSpaceOnUse">
<stop stop-color="#00FFA3" stop-opacity="0.8"/>
<stop offset="1" stop-color="#00FFF0" stop-opacity="0.6"/>
</linearGradient>
<linearGradient id="paint5_linear_109_2" x1="179.731" y1="142.041" x2="179.731" y2="215.688" gradientUnits="userSpaceOnUse">
<stop stop-color="#00FFA3" stop-opacity="0.8"/>
<stop offset="1" stop-color="#00FFF0" stop-opacity="0.6"/>
</linearGradient>
<linearGradient id="paint6_linear_109_2" x1="181.847" y1="73.8618" x2="181.847" y2="186.787" gradientUnits="userSpaceOnUse">
<stop stop-color="#00FFA3" stop-opacity="0.8"/>
<stop offset="1" stop-color="#00FFF0" stop-opacity="0.6"/>
</linearGradient>
</defs>
</svg>
